<?xml version="1.0" standalone="no"?><svg xmlns="http://www.w3.org/2000/svg" viewBox="0 0 1440 320"><path fill="#ee88ee" fill-opacity="1" d="M0,192L7.3,208C14.5,224,29,256,44,277.3C58.2,299,73,309,87,293.3C101.8,277,116,235,131,229.3C145.5,224,160,256,175,224C189.1,192,204,96,218,80C232.7,64,247,128,262,165.3C276.4,203,291,213,305,224C320,235,335,245,349,245.3C363.6,245,378,235,393,197.3C407.3,160,422,96,436,106.7C450.9,117,465,203,480,202.7C494.5,203,509,117,524,112C538.2,107,553,181,567,186.7C581.8,192,596,128,611,122.7C625.5,117,640,171,655,208C669.1,245,684,267,698,234.7C712.7,203,727,117,742,74.7C756.4,32,771,32,785,64C800,96,815,160,829,202.7C843.6,245,858,267,873,250.7C887.3,235,902,181,916,149.3C930.9,117,945,107,960,117.3C974.5,128,989,160,1004,176C1018.2,192,1033,192,1047,181.3C1061.8,171,1076,149,1091,165.3C1105.5,181,1120,235,1135,234.7C1149.1,235,1164,181,1178,133.3C1192.7,85,1207,43,1222,53.3C1236.4,64,1251,128,1265,154.7C1280,181,1295,171,1309,149.3C1323.6,128,1338,96,1353,80C1367.3,64,1382,64,1396,101.3C1410.9,139,1425,213,1433,250.7L1440,288L1440,0L1432.7,0C1425.5,0,1411,0,1396,0C1381.8,0,1367,0,1353,0C1338.2,0,1324,0,1309,0C1294.5,0,1280,0,1265,0C1250.9,0,1236,0,1222,0C1207.3,0,1193,0,1178,0C1163.6,0,1149,0,1135,0C1120,0,1105,0,1091,0C1076.4,0,1062,0,1047,0C1032.7,0,1018,0,1004,0C989.1,0,975,0,960,0C945.5,0,931,0,916,0C901.8,0,887,0,873,0C858.2,0,844,0,829,0C814.5,0,800,0,785,0C770.9,0,756,0,742,0C727.3,0,713,0,698,0C683.6,0,669,0,655,0C640,0,625,0,611,0C596.4,0,582,0,567,0C552.7,0,538,0,524,0C509.1,0,495,0,480,0C465.5,0,451,0,436,0C421.8,0,407,0,393,0C378.2,0,364,0,349,0C334.5,0,320,0,305,0C290.9,0,276,0,262,0C247.3,0,233,0,218,0C203.6,0,189,0,175,0C160,0,145,0,131,0C116.4,0,102,0,87,0C72.7,0,58,0,44,0C29.1,0,15,0,7,0L0,0Z"></path></svg>